<svg xmlns="http://www.w3.org/2000/svg" viewBox="0 0 155.24 141.72"><defs><style>.cls-1{fill:#8d1f28;}</style></defs><g transform="translate(-279.41 0)"><rect class="cls-1" x="279.41" width="21.06" height="20.19" /><path class="cls-1" d="M384.24,74.64c2.36,4.67,1.6,11.34-2.45,13.42s-9.86-1.2-12.22-5.87-1-10.14,3.05-12.22S381.87,70,384.24,74.64Z" /><path class="cls-1" d="M401.17,107.89c3.76-6.23-10.62-14.09-10.62-14.09C398,85.14,405,86.39,410.3,92.21a25.24,25.24,0,0,0,.81-6.77c0-19.32-16.63-35.57-35.79-35.57-9.79,0-19.6,4.22-27,10.7L326.07,80.84l19.3,25.38L375,141.72l-26.47,0L310.26,94.85l-9.79,8.65v38.12H279.41V29.25h21.06V75.32l34-30.69h0c10.47-9.45,25.76-15.94,40.86-15.94,30.74,0,56.79,25.75,56.79,56.74a56.15,56.15,0,0,1-9.74,31.69h0c6.38,13.28,12.28,24.48,12.28,24.48-13-1-23.35-2.07-32-4.07-16.61-3.79-25.12-9-30.44-14.37-10.83-10.85-6.4-24.72-6.4-24.72h18.56s5.47,18,14.84,11.48l0,0a7,7,0,0,0,2-2Z" /></g></svg>
