<svg xmlns="http://www.w3.org/2000/svg" viewBox="0 0 434.65 141.72"><defs><style>.cls-1{fill:#8d1f28;}</style></defs><g id="Layer1"><rect class="cls-1" y="30.26" width="81.72" height="20.24" /><rect class="cls-1" x="30.36" y="39.38" width="21" height="102.34" /><polygon class="cls-1" points="120.39 30.25 133.73 30.25 176.35 141.72 153.74 141.72 127.06 65.6 100.38 141.72 77.77 141.72 120.39 30.25" /><rect class="cls-1" x="98.23" y="103.62" width="58.65" height="20.24" /><path class="cls-1" d="M208.86,140.12a67.77,67.77,0,0,1-14.33-4.68,55.52,55.52,0,0,1-12-7.43l9.74-17.21a47.21,47.21,0,0,0,14.87,8.11,53.76,53.76,0,0,0,17.32,2.86q10.28,0,15.95-3.47a10.88,10.88,0,0,0,5.67-9.79v-.07a9.59,9.59,0,0,0-2.53-7A15.13,15.13,0,0,0,237,97.62a80.73,80.73,0,0,0-10.43-2.2,1.35,1.35,0,0,0-.42-.08,1.35,1.35,0,0,1-.42-.08L224,95a103.79,103.79,0,0,1-18.55-4.37A27.38,27.38,0,0,1,193,81.44q-5.15-6.59-5.14-18.7v-.07q0-10.74,4.83-18.36a30.51,30.51,0,0,1,14-11.61q9.19-4,22.23-4a57.24,57.24,0,0,1,12.23,1.37,67.87,67.87,0,0,1,12.23,4,68.73,68.73,0,0,1,11.34,6.25L255.82,58a56.47,56.47,0,0,0-13.46-6.86,41,41,0,0,0-13.45-2.43q-9.66,0-14.95,3.16t-5.29,8.87v.07a10.28,10.28,0,0,0,2.76,7.58,16.54,16.54,0,0,0,6.82,4.08,111.37,111.37,0,0,0,11.43,2.74,4.34,4.34,0,0,0,.61.11c.2,0,.41.07.61.12a8.24,8.24,0,0,1,.89.19c.28.07.57.14.88.19a93.34,93.34,0,0,1,17.67,5,27.49,27.49,0,0,1,11.84,9.44q4.76,6.51,4.76,17.78v.15q0,10.59-5,18.13a31.05,31.05,0,0,1-14.53,11.5q-9.54,4-23,4A75.62,75.62,0,0,1,208.86,140.12Z" /><rect class="cls-1" x="279.41" width="21.06" height="20.19" /><path class="cls-1" d="M384.24,74.64c2.36,4.67,1.6,11.34-2.45,13.42s-9.86-1.2-12.22-5.87-1-10.14,3.05-12.22S381.87,70,384.24,74.64Z" /><path class="cls-1" d="M401.17,107.89c3.76-6.23-10.62-14.09-10.62-14.09C398,85.14,405,86.39,410.3,92.21a25.24,25.24,0,0,0,.81-6.77c0-19.32-16.63-35.57-35.79-35.57-9.79,0-19.6,4.22-27,10.7L326.07,80.84l19.3,25.38L375,141.72l-26.47,0L310.26,94.85l-9.79,8.65v38.12H279.41V29.25h21.06V75.32l34-30.69h0c10.47-9.45,25.76-15.94,40.86-15.94,30.74,0,56.79,25.75,56.79,56.74a56.15,56.15,0,0,1-9.74,31.69h0c6.38,13.28,12.28,24.48,12.28,24.48-13-1-23.35-2.07-32-4.07-16.61-3.79-25.12-9-30.44-14.37-10.83-10.85-6.4-24.72-6.4-24.72h18.56s5.47,18,14.84,11.48l0,0a7,7,0,0,0,2-2Z" /></g></svg>
